<?xml version="1.0" encoding="UTF-8"?>
<svg width="75px" height="30px" viewBox="0 0 75 30" version="1.1" xmlns="http://www.w3.org/2000/svg" xmlns:xlink="http://www.w3.org/1999/xlink">
    <!-- Generator: Sketch 50.2 (55047) - http://www.bohemiancoding.com/sketch -->
    <title>Fill 1</title>
    <desc>Created with Sketch.</desc>
    <defs></defs>
    <g id="Symbols" stroke="none" stroke-width="1" fill="none" fill-rule="evenodd">
        <g id="~-corporate/header" transform="translate(-143.000000, -25.000000)" fill="#FA1900">
            <g id="Group-3">
                <path d="M174.552117,45.4111766 L169.077664,39.9197898 L169.077664,54.7551766 L174.552117,54.7551766 L174.552117,45.4111766 Z M157.232876,30.1412204 L165.942248,30.1412204 L165.942248,25.1265635 L143,25.1265635 L143,30.1412204 L151.709489,30.1412204 L151.709489,54.7550599 L157.232876,54.7550599 L157.232876,30.1412204 Z M169.077664,39.919673 L174.552117,34.4282861 L174.552117,25.1265635 L169.077664,25.1265635 L169.077664,39.919673 Z M191.765547,51.217892 L180.512526,39.9646365 L191.763912,28.7576292 L188.031708,25.0254248 L173.183474,39.9197898 L188.073635,54.8561985 L191.765547,51.217892 Z M212.144175,34.6545051 C212.144175,37.4960818 210.514394,39.4184175 206.920584,39.4184175 L200.960409,39.4184175 L200.960409,29.8486657 L206.920584,29.8486657 C210.514394,29.8486657 212.144175,31.8128117 212.144175,34.6545051 Z M217.576818,34.6126949 C217.576818,28.929308 213.941197,25.1265635 207.129518,25.1265635 L195.512117,25.1265635 L195.512117,54.7550599 L200.960409,54.7550599 L200.960409,44.1406365 L207.129518,44.1406365 C213.941197,44.1406365 217.576818,40.295965 217.576818,34.6126949 Z" id="Fill-1"></path>
            </g>
        </g>
    </g>
</svg>
